<svg width="11" height="19" viewBox="0 0 11 19" fill="none" xmlns="http://www.w3.org/2000/svg">
<path d="M10.002 8.73381L2.21423 0.946227C2.03411 0.765965 1.79366 0.666656 1.53728 0.666656C1.2809 0.666656 1.04046 0.765965 0.860339 0.946227L0.286827 1.5196C-0.086361 1.89321 -0.086361 2.50044 0.286827 2.87349L6.82637 9.41303L0.279571 15.9598C0.0994504 16.1401 0 16.3804 0 16.6366C0 16.8932 0.0994504 17.1335 0.279571 17.3139L0.853082 17.8871C1.03335 18.0674 1.27365 18.1667 1.53003 18.1667C1.78641 18.1667 2.02685 18.0674 2.20697 17.8871L10.002 10.0924C10.1825 9.91156 10.2817 9.67012 10.2811 9.41346C10.2817 9.1558 10.1825 8.9145 10.002 8.73381Z" fill="white"/>
</svg>
