<svg width="11" height="19" viewBox="0 0 11 19" fill="none" xmlns="http://www.w3.org/2000/svg">
<path d="M0.998049 10.2662L8.78577 18.0538C8.96589 18.234 9.20634 18.3333 9.46272 18.3333C9.7191 18.3333 9.95954 18.234 10.1397 18.0538L10.7132 17.4804C11.0864 17.1068 11.0864 16.4996 10.7132 16.1265L4.17363 9.58697L10.7204 3.04017C10.9005 2.85991 11 2.61961 11 2.36337C11 2.10685 10.9005 1.86654 10.7204 1.68614L10.1469 1.11291C9.96665 0.93265 9.72635 0.833344 9.46997 0.833344C9.21359 0.833344 8.97315 0.93265 8.79303 1.11291L0.998049 8.90761C0.817502 9.08844 0.718336 9.32988 0.718905 9.58654C0.718336 9.8442 0.817502 10.0855 0.998049 10.2662Z" fill="white"/>
</svg>
